<?xml version="1.0" encoding="UTF-8" standalone="no"?>
<!DOCTYPE svg PUBLIC "-//W3C//DTD SVG 1.1//EN"
 "http://www.w3.org/Graphics/SVG/1.1/DTD/svg11.dtd">
<!-- Generated by graphviz version 2.40.1 (20161225.0304)
 -->
<!-- Title: G Pages: 1 -->
<svg width="982pt" height="531pt"
 viewBox="0.00 0.00 981.60 530.60" xmlns="http://www.w3.org/2000/svg" xmlns:xlink="http://www.w3.org/1999/xlink">
<g id="graph0" class="graph" transform="scale(1 1) rotate(0) translate(11 526.6)">
<title>G</title>
<polygon fill="#ffffff" stroke="transparent" points="-11,4 -11,-526.6 970.6,-526.6 970.6,4 -11,4"/>
<!-- 0 -->
<g id="node1" class="node">
<title>0</title>
<ellipse fill="#000000" stroke="#000000" cx="1.8" cy="-1.8" rx="1.8" ry="1.8"/>
<text text-anchor="middle" x="-3.5" y="-7.4" font-family="Times,serif" font-size="14.00" fill="#000000">0</text>
</g>
<!-- 1 -->
<g id="node2" class="node">
<title>1</title>
<ellipse fill="#000000" stroke="#000000" cx="793.8" cy="-145.8" rx="1.8" ry="1.8"/>
<text text-anchor="middle" x="788.5" y="-151.4" font-family="Times,serif" font-size="14.00" fill="#000000">1</text>
</g>
<!-- 0&#45;&#45;1 -->
<g id="edge1" class="edge">
<title>0&#45;&#45;1</title>
<path fill="none" stroke="#000000" d="M793.8,-145.8C966.6,-30.6 808.2,-1.8 1.8,-1.8"/>
</g>
<!-- 2 -->
<g id="node3" class="node">
<title>2</title>
<ellipse fill="#000000" stroke="#000000" cx="577.8" cy="-73.8" rx="1.8" ry="1.8"/>
<text text-anchor="middle" x="572.5" y="-79.4" font-family="Times,serif" font-size="14.00" fill="#000000">2</text>
</g>
<!-- 0&#45;&#45;2 -->
<g id="edge2" class="edge">
<title>0&#45;&#45;2</title>
<path fill="none" stroke="#000000" d="M3.8857,-2.0607C40.2626,-6.6078 540.7137,-69.1642 575.8567,-73.5571"/>
</g>
<!-- 3 -->
<g id="node4" class="node">
<title>3</title>
<ellipse fill="#000000" stroke="#000000" cx="505.8" cy="-505.8" rx="1.8" ry="1.8"/>
<text text-anchor="middle" x="500.5" y="-511.4" font-family="Times,serif" font-size="14.00" fill="#000000">3</text>
</g>
<!-- 0&#45;&#45;3 -->
<g id="edge3" class="edge">
<title>0&#45;&#45;3</title>
<path fill="none" stroke="#000000" d="M3.2458,-3.2458C31.884,-31.884 476.671,-476.671 504.4422,-504.4422"/>
</g>
<!-- 4 -->
<g id="node5" class="node">
<title>4</title>
<ellipse fill="#000000" stroke="#000000" cx="577.8" cy="-289.8" rx="1.8" ry="1.8"/>
<text text-anchor="middle" x="572.5" y="-295.4" font-family="Times,serif" font-size="14.00" fill="#000000">4</text>
</g>
<!-- 0&#45;&#45;4 -->
<g id="edge4" class="edge">
<title>0&#45;&#45;4</title>
<path fill="none" stroke="#000000" d="M1.8,-1.8C232.2,-117 347.4,-174.6 577.8,-289.8"/>
</g>
<!-- 5 -->
<g id="node6" class="node">
<title>5</title>
<ellipse fill="#000000" stroke="#000000" cx="433.8" cy="-361.8" rx="1.8" ry="1.8"/>
<text text-anchor="middle" x="428.5" y="-367.4" font-family="Times,serif" font-size="14.00" fill="#000000">5</text>
</g>
<!-- 0&#45;&#45;5 -->
<g id="edge5" class="edge">
<title>0&#45;&#45;5</title>
<path fill="none" stroke="#000000" d="M3.3643,-3.1036C30.647,-25.8391 405.9853,-338.6211 432.3426,-360.5855"/>
</g>
<!-- 1&#45;&#45;2 -->
<g id="edge6" class="edge">
<title>1&#45;&#45;2</title>
<path fill="none" stroke="#000000" d="M791.9327,-145.1776C772.1405,-138.5802 601.2561,-81.6187 579.9729,-74.5243"/>
</g>
<!-- 1&#45;&#45;3 -->
<g id="edge7" class="edge">
<title>1&#45;&#45;3</title>
<path fill="none" stroke="#000000" d="M792.516,-147.405C772.551,-172.3612 526.2024,-480.297 506.9869,-504.3164"/>
</g>
<!-- 1&#45;&#45;4 -->
<g id="edge8" class="edge">
<title>1&#45;&#45;4</title>
<path fill="none" stroke="#000000" d="M791.9327,-147.0449C771.9755,-160.3496 598.3975,-276.0683 579.4721,-288.6852"/>
</g>
<!-- 1&#45;&#45;5 -->
<g id="edge9" class="edge">
<title>1&#45;&#45;5</title>
<path fill="none" stroke="#000000" d="M433.8,-361.8C491.4,-419.4 563.4,-376.2 793.8,-145.8"/>
</g>
<!-- 2&#45;&#45;3 -->
<g id="edge10" class="edge">
<title>2&#45;&#45;3</title>
<path fill="none" stroke="#000000" d="M505.8,-505.8C909,-102.6 923.4,-16.2 577.8,-73.8"/>
</g>
<!-- 2&#45;&#45;4 -->
<g id="edge11" class="edge">
<title>2&#45;&#45;4</title>
<path fill="none" stroke="#000000" d="M577.8,-75.6673C577.8,-95.4595 577.8,-266.3439 577.8,-287.6271"/>
</g>
<!-- 2&#45;&#45;5 -->
<g id="edge12" class="edge">
<title>2&#45;&#45;5</title>
<path fill="none" stroke="#000000" d="M577.8,-73.8C347.4,-131.4 318.6,-189 433.8,-361.8"/>
</g>
<!-- 3&#45;&#45;4 -->
<g id="edge13" class="edge">
<title>3&#45;&#45;4</title>
<path fill="none" stroke="#000000" d="M505.8,-505.8C505.8,-448.2 520.2,-405 577.8,-289.8"/>
</g>
<!-- 3&#45;&#45;5 -->
<g id="edge14" class="edge">
<title>3&#45;&#45;5</title>
<path fill="none" stroke="#000000" d="M504.9914,-504.1828C497.6374,-489.4749 442.4252,-379.0504 434.6973,-363.5946"/>
</g>
<!-- 4&#45;&#45;5 -->
<g id="edge15" class="edge">
<title>4&#45;&#45;5</title>
<path fill="none" stroke="#000000" d="M576.1828,-290.6086C561.4749,-297.9626 451.0504,-353.1748 435.5946,-360.9027"/>
</g>
</g>
</svg>
