<?xml version="1.0" encoding="UTF-8" standalone="no"?>
<!DOCTYPE svg PUBLIC "-//W3C//DTD SVG 1.1//EN"
 "http://www.w3.org/Graphics/SVG/1.1/DTD/svg11.dtd">
<!-- Generated by graphviz version 2.40.1 (20161225.0304)
 -->
<!-- Title: G Pages: 1 -->
<svg width="343pt" height="401pt"
 viewBox="0.00 0.00 342.60 400.71" xmlns="http://www.w3.org/2000/svg" xmlns:xlink="http://www.w3.org/1999/xlink">
<g id="graph0" class="graph" transform="scale(1 1) rotate(0) translate(11 396.712)">
<title>G</title>
<polygon fill="#ffffff" stroke="transparent" points="-11,4 -11,-396.712 331.6,-396.712 331.6,4 -11,4"/>
<!-- 0 -->
<g id="node1" class="node">
<title>0</title>
<ellipse fill="#000000" stroke="#000000" cx="325.8" cy="-188.856" rx="1.8" ry="1.8"/>
<text text-anchor="middle" x="320.5" y="-194.456" font-family="Times,serif" font-size="14.00" fill="#000000">0</text>
</g>
<!-- 1 -->
<g id="node2" class="node">
<title>1</title>
<ellipse fill="#000000" stroke="#000000" cx="1.8" cy="-375.912" rx="1.8" ry="1.8"/>
<text text-anchor="middle" x="-3.5" y="-381.512" font-family="Times,serif" font-size="14.00" fill="#000000">1</text>
</g>
<!-- 0&#45;&#45;1 -->
<g id="edge1" class="edge">
<title>0&#45;&#45;1</title>
<path fill="none" stroke="#000000" d="M324.0568,-189.8624C299.6503,-203.9531 26.8015,-361.4778 3.3986,-374.9891"/>
</g>
<!-- 5 -->
<g id="node6" class="node">
<title>5</title>
<ellipse fill="#000000" stroke="#000000" cx="1.8" cy="-1.8" rx="1.8" ry="1.8"/>
<text text-anchor="middle" x="-3.5" y="-7.4" font-family="Times,serif" font-size="14.00" fill="#000000">5</text>
</g>
<!-- 0&#45;&#45;5 -->
<g id="edge2" class="edge">
<title>0&#45;&#45;5</title>
<path fill="none" stroke="#000000" d="M324.0568,-187.8496C299.6503,-173.7589 26.8015,-16.2342 3.3986,-2.7229"/>
</g>
<!-- 2 -->
<g id="node3" class="node">
<title>2</title>
<ellipse fill="#000000" stroke="#000000" cx="50.8914" cy="-185.9153" rx="1.8" ry="1.8"/>
<text text-anchor="middle" x="45.5914" y="-191.5153" font-family="Times,serif" font-size="14.00" fill="#000000">2</text>
</g>
<!-- 1&#45;&#45;2 -->
<g id="edge3" class="edge">
<title>1&#45;&#45;2</title>
<path fill="none" stroke="#000000" d="M2.3513,-373.7782C7.4076,-354.2092 45.6455,-206.2182 50.4055,-187.7958"/>
</g>
<!-- 4 -->
<g id="node5" class="node">
<title>4</title>
<ellipse fill="#000000" stroke="#000000" cx="80.3448" cy="-233.4276" rx="1.8" ry="1.8"/>
<text text-anchor="middle" x="75.0448" y="-239.0276" font-family="Times,serif" font-size="14.00" fill="#000000">4</text>
</g>
<!-- 1&#45;&#45;4 -->
<g id="edge4" class="edge">
<title>1&#45;&#45;4</title>
<path fill="none" stroke="#000000" d="M2.6821,-374.3118C10.7045,-359.7587 70.9356,-250.4964 79.3659,-235.2033"/>
</g>
<!-- 1&#45;&#45;5 -->
<g id="edge5" class="edge">
<title>1&#45;&#45;5</title>
<path fill="none" stroke="#000000" d="M1.8,-373.8992C1.8,-345.7178 1.8,-30.6684 1.8,-3.6459"/>
</g>
<!-- 3 -->
<g id="node4" class="node">
<title>3</title>
<ellipse fill="#000000" stroke="#000000" cx="80.3448" cy="-135.9198" rx="1.8" ry="1.8"/>
<text text-anchor="middle" x="75.0448" y="-141.5198" font-family="Times,serif" font-size="14.00" fill="#000000">3</text>
</g>
<!-- 2&#45;&#45;3 -->
<g id="edge6" class="edge">
<title>2&#45;&#45;3</title>
<path fill="none" stroke="#000000" d="M51.8714,-184.2519C56.3432,-176.6613 74.7893,-145.35 79.3309,-137.6408"/>
</g>
<!-- 2&#45;&#45;4 -->
<g id="edge7" class="edge">
<title>2&#45;&#45;4</title>
<path fill="none" stroke="#000000" d="M51.8714,-187.4962C56.3432,-194.7097 74.7893,-224.4658 79.3309,-231.7921"/>
</g>
<!-- 2&#45;&#45;5 -->
<g id="edge8" class="edge">
<title>2&#45;&#45;5</title>
<path fill="none" stroke="#000000" d="M50.3401,-183.8476C45.2838,-164.8843 7.0459,-21.4744 2.2859,-3.6223"/>
</g>
<!-- 6 -->
<g id="node7" class="node">
<title>6</title>
<ellipse fill="#000000" stroke="#000000" cx="90.1638" cy="-182.5177" rx="1.8" ry="1.8"/>
<text text-anchor="middle" x="84.8638" y="-188.1177" font-family="Times,serif" font-size="14.00" fill="#000000">6</text>
</g>
<!-- 2&#45;&#45;6 -->
<g id="edge19" class="edge">
<title>2&#45;&#45;6</title>
<path fill="none" stroke="#ff0000" d="M53.0029,-185.7327C59.8856,-185.1372 81.6091,-183.2578 88.2297,-182.685"/>
</g>
<!-- 3&#45;&#45;5 -->
<g id="edge9" class="edge">
<title>3&#45;&#45;5</title>
<path fill="none" stroke="#000000" d="M79.2345,-134.0238C70.359,-118.8685 11.0583,-17.6091 2.763,-3.4444"/>
</g>
<!-- 3&#45;&#45;6 -->
<g id="edge21" class="edge">
<title>3&#45;&#45;6</title>
<path fill="none" stroke="#ff0000" d="M80.7667,-137.9221C82.3818,-145.5869 88.161,-173.0128 89.7544,-180.5747"/>
</g>
<!-- 7 -->
<g id="node8" class="node">
<title>7</title>
<ellipse fill="#000000" stroke="#000000" cx="119.6181" cy="-171.1069" rx="1.8" ry="1.8"/>
<text text-anchor="middle" x="114.3181" y="-176.7069" font-family="Times,serif" font-size="14.00" fill="#000000">7</text>
</g>
<!-- 3&#45;&#45;7 -->
<g id="edge25" class="edge">
<title>3&#45;&#45;7</title>
<path fill="none" stroke="#ff0000" d="M82.0323,-137.4317C88.4924,-143.2197 111.6073,-163.9296 117.9806,-169.6398"/>
</g>
<!-- 4&#45;&#45;6 -->
<g id="edge23" class="edge">
<title>4&#45;&#45;6</title>
<path fill="none" stroke="#ff0000" d="M80.7667,-231.2401C82.3818,-222.8659 88.161,-192.9021 89.7544,-184.6404"/>
</g>
<!-- 9 -->
<g id="node10" class="node">
<title>9</title>
<ellipse fill="#000000" stroke="#000000" cx="139.2552" cy="-228.1932" rx="1.8" ry="1.8"/>
<text text-anchor="middle" x="133.9552" y="-233.7932" font-family="Times,serif" font-size="14.00" fill="#000000">9</text>
</g>
<!-- 4&#45;&#45;9 -->
<g id="edge27" class="edge">
<title>4&#45;&#45;9</title>
<path fill="none" stroke="#ff0000" d="M82.3049,-233.2534C91.249,-232.4587 128.1435,-229.1805 137.2274,-228.3734"/>
</g>
<!-- 10 -->
<g id="node11" class="node">
<title>10</title>
<ellipse fill="#000000" stroke="#000000" cx="139.2552" cy="-138.8484" rx="1.8" ry="1.8"/>
<text text-anchor="middle" x="130.4552" y="-144.4484" font-family="Times,serif" font-size="14.00" fill="#000000">10</text>
</g>
<!-- 5&#45;&#45;10 -->
<g id="edge29" class="edge">
<title>5&#45;&#45;10</title>
<path fill="none" stroke="#ff0000" d="M3.3437,-3.3391C17.5011,-17.4547 124.5668,-124.2035 137.8948,-137.492"/>
</g>
<!-- 7&#45;&#45;6 -->
<g id="edge10" class="edge">
<title>7&#45;&#45;6</title>
<path fill="none" stroke="#000000" d="M117.6855,-171.8556C112.259,-173.9579 96.946,-179.8902 91.8425,-181.8673"/>
</g>
<!-- 8 -->
<g id="node9" class="node">
<title>8</title>
<ellipse fill="#000000" stroke="#000000" cx="168.7086" cy="-183.0796" rx="1.8" ry="1.8"/>
<text text-anchor="middle" x="163.4086" y="-188.6796" font-family="Times,serif" font-size="14.00" fill="#000000">8</text>
</g>
<!-- 8&#45;&#45;0 -->
<g id="edge20" class="edge">
<title>8&#45;&#45;0</title>
<path fill="none" stroke="#ff0000" d="M170.6948,-183.1527C187.6009,-183.7743 307.1326,-188.1696 323.8581,-188.7846"/>
</g>
<!-- 8&#45;&#45;7 -->
<g id="edge12" class="edge">
<title>8&#45;&#45;7</title>
<path fill="none" stroke="#000000" d="M166.5992,-182.5652C158.5244,-180.5958 129.6314,-173.5491 121.665,-171.6061"/>
</g>
<!-- 9&#45;&#45;0 -->
<g id="edge22" class="edge">
<title>9&#45;&#45;0</title>
<path fill="none" stroke="#ff0000" d="M141.3502,-227.7514C160.5637,-223.6998 305.866,-193.0595 323.9537,-189.2453"/>
</g>
<!-- 9&#45;&#45;1 -->
<g id="edge26" class="edge">
<title>9&#45;&#45;1</title>
<path fill="none" stroke="#ff0000" d="M137.7115,-229.8522C123.5541,-245.0667 16.4884,-360.1269 3.1604,-374.45"/>
</g>
<!-- 9&#45;&#45;8 -->
<g id="edge15" class="edge">
<title>9&#45;&#45;8</title>
<path fill="none" stroke="#000000" d="M140.5208,-226.2547C145.3656,-218.834 162.7008,-192.2817 167.4805,-184.9607"/>
</g>
<!-- 10&#45;&#45;0 -->
<g id="edge24" class="edge">
<title>10&#45;&#45;0</title>
<path fill="none" stroke="#ff0000" d="M141.3502,-139.41C160.5637,-144.5606 305.866,-183.5122 323.9537,-188.3611"/>
</g>
<!-- 10&#45;&#45;3 -->
<g id="edge28" class="edge">
<title>10&#45;&#45;3</title>
<path fill="none" stroke="#ff0000" d="M137.2951,-138.751C128.351,-138.3063 91.4565,-136.4722 82.3726,-136.0206"/>
</g>
<!-- 10&#45;&#45;7 -->
<g id="edge13" class="edge">
<title>10&#45;&#45;7</title>
<path fill="none" stroke="#000000" d="M138.1994,-140.5828C134.7579,-146.2362 123.8956,-164.08 120.5852,-169.5182"/>
</g>
<!-- 10&#45;&#45;8 -->
<g id="edge16" class="edge">
<title>10&#45;&#45;8</title>
<path fill="none" stroke="#000000" d="M140.5208,-140.749C145.3656,-148.0245 162.7008,-174.0575 167.4805,-181.2354"/>
</g>
<!-- 11 -->
<g id="node12" class="node">
<title>11</title>
<ellipse fill="#000000" stroke="#000000" cx="119.6181" cy="-189.5715" rx="1.8" ry="1.8"/>
<text text-anchor="middle" x="110.8181" y="-195.1715" font-family="Times,serif" font-size="14.00" fill="#000000">11</text>
</g>
<!-- 11&#45;&#45;4 -->
<g id="edge30" class="edge">
<title>11&#45;&#45;4</title>
<path fill="none" stroke="#ff0000" d="M118.3114,-191.0307C112.3487,-197.6892 87.7525,-225.1554 81.6967,-231.918"/>
</g>
<!-- 11&#45;&#45;6 -->
<g id="edge11" class="edge">
<title>11&#45;&#45;6</title>
<path fill="none" stroke="#000000" d="M117.6855,-189.1087C112.3614,-187.8336 97.5203,-184.2794 92.1421,-182.9914"/>
</g>
<!-- 11&#45;&#45;7 -->
<g id="edge14" class="edge">
<title>11&#45;&#45;7</title>
<path fill="none" stroke="#000000" d="M119.6181,-187.5955C119.6181,-184.0229 119.6181,-176.5344 119.6181,-173.0134"/>
</g>
<!-- 11&#45;&#45;8 -->
<g id="edge17" class="edge">
<title>11&#45;&#45;8</title>
<path fill="none" stroke="#000000" d="M121.7275,-189.2926C129.8023,-188.2247 158.6953,-184.4038 166.6617,-183.3503"/>
</g>
<!-- 11&#45;&#45;9 -->
<g id="edge18" class="edge">
<title>11&#45;&#45;9</title>
<path fill="none" stroke="#000000" d="M120.4619,-191.231C123.692,-197.5839 135.2497,-220.3153 138.4364,-226.5828"/>
</g>
</g>
</svg>
