<?xml version="1.0" encoding="UTF-8" standalone="no"?>
<!DOCTYPE svg PUBLIC "-//W3C//DTD SVG 1.1//EN"
 "http://www.w3.org/Graphics/SVG/1.1/DTD/svg11.dtd">
<!-- Generated by graphviz version 2.47.1 (0)
 -->
<!-- Title: G Pages: 1 -->
<svg width="214pt" height="248pt"
 viewBox="0.00 0.00 213.60 248.30" xmlns="http://www.w3.org/2000/svg" xmlns:xlink="http://www.w3.org/1999/xlink">
<g id="graph0" class="graph" transform="scale(1 1) rotate(0) translate(14 244.3)">
<title>G</title>
<polygon fill="white" stroke="transparent" points="-14,4 -14,-244.3 199.6,-244.3 199.6,4 -14,4"/>
<!-- 0 -->
<g id="node1" class="node">
<title>0</title>
<ellipse fill="black" stroke="black" cx="193.8" cy="-112.65" rx="1.8" ry="1.8"/>
<text text-anchor="middle" x="187" y="-118.25" font-family="Times,serif" font-size="14.00">0</text>
</g>
<!-- 3 -->
<g id="node4" class="node">
<title>3</title>
<ellipse fill="black" stroke="black" cx="1.8" cy="-223.5" rx="1.8" ry="1.8"/>
<text text-anchor="middle" x="-5" y="-229.1" font-family="Times,serif" font-size="14.00">3</text>
</g>
<!-- 0&#45;&#45;3 -->
<g id="edge1" class="edge">
<title>0&#45;&#45;3</title>
<path fill="none" stroke="black" d="M192.14,-113.61C174.55,-123.77 22.65,-211.46 3.73,-222.39"/>
</g>
<!-- 4 -->
<g id="node5" class="node">
<title>4</title>
<ellipse fill="black" stroke="black" cx="1.8" cy="-1.8" rx="1.8" ry="1.8"/>
<text text-anchor="middle" x="-5" y="-7.4" font-family="Times,serif" font-size="14.00">4</text>
</g>
<!-- 0&#45;&#45;4 -->
<g id="edge2" class="edge">
<title>0&#45;&#45;4</title>
<path fill="none" stroke="black" d="M192.14,-111.69C174.55,-101.54 22.65,-13.84 3.73,-2.92"/>
</g>
<!-- 5 -->
<g id="node6" class="node">
<title>5</title>
<ellipse fill="black" stroke="black" cx="83.25" cy="-82.42" rx="1.8" ry="1.8"/>
<text text-anchor="middle" x="76.45" y="-88.02" font-family="Times,serif" font-size="14.00">5</text>
</g>
<!-- 0&#45;&#45;5 -->
<g id="edge3" class="edge">
<title>0&#45;&#45;5</title>
<path fill="none" stroke="black" d="M191.88,-112.13C178.46,-108.46 98.82,-86.67 85.23,-82.96"/>
</g>
<!-- 7 -->
<g id="node8" class="node">
<title>7</title>
<ellipse fill="black" stroke="black" cx="83.25" cy="-142.88" rx="1.8" ry="1.8"/>
<text text-anchor="middle" x="76.45" y="-148.48" font-family="Times,serif" font-size="14.00">7</text>
</g>
<!-- 0&#45;&#45;7 -->
<g id="edge21" class="edge">
<title>0&#45;&#45;7</title>
<path fill="none" stroke="red" d="M191.88,-113.18C178.46,-116.85 98.82,-138.63 85.23,-142.34"/>
</g>
<!-- 8 -->
<g id="node9" class="node">
<title>8</title>
<ellipse fill="black" stroke="black" cx="100.71" cy="-112.65" rx="1.8" ry="1.8"/>
<text text-anchor="middle" x="93.91" y="-118.25" font-family="Times,serif" font-size="14.00">8</text>
</g>
<!-- 0&#45;&#45;8 -->
<g id="edge23" class="edge">
<title>0&#45;&#45;8</title>
<path fill="none" stroke="red" d="M191.86,-112.65C179.74,-112.65 114.73,-112.65 102.64,-112.65"/>
</g>
<!-- 1 -->
<g id="node2" class="node">
<title>1</title>
<ellipse fill="black" stroke="black" cx="48.35" cy="-82.42" rx="1.8" ry="1.8"/>
<text text-anchor="middle" x="41.55" y="-88.02" font-family="Times,serif" font-size="14.00">1</text>
</g>
<!-- 2 -->
<g id="node3" class="node">
<title>2</title>
<ellipse fill="black" stroke="black" cx="30.89" cy="-112.65" rx="1.8" ry="1.8"/>
<text text-anchor="middle" x="24.09" y="-118.25" font-family="Times,serif" font-size="14.00">2</text>
</g>
<!-- 1&#45;&#45;2 -->
<g id="edge4" class="edge">
<title>1&#45;&#45;2</title>
<path fill="none" stroke="black" d="M47.41,-84.04C44.4,-89.24 35.05,-105.45 31.92,-110.87"/>
</g>
<!-- 1&#45;&#45;4 -->
<g id="edge5" class="edge">
<title>1&#45;&#45;4</title>
<path fill="none" stroke="black" d="M47.37,-80.73C41.32,-70.24 8.81,-13.94 2.77,-3.47"/>
</g>
<!-- 1&#45;&#45;5 -->
<g id="edge6" class="edge">
<title>1&#45;&#45;5</title>
<path fill="none" stroke="black" d="M50.22,-82.42C56.23,-82.42 74.94,-82.42 81.19,-82.42"/>
</g>
<!-- 9 -->
<g id="node10" class="node">
<title>9</title>
<ellipse fill="black" stroke="black" cx="71.62" cy="-102.57" rx="1.8" ry="1.8"/>
<text text-anchor="middle" x="64.82" y="-108.17" font-family="Times,serif" font-size="14.00">9</text>
</g>
<!-- 1&#45;&#45;9 -->
<g id="edge25" class="edge">
<title>1&#45;&#45;9</title>
<path fill="none" stroke="red" d="M49.87,-83.74C54.08,-87.38 65.81,-97.54 70.06,-101.22"/>
</g>
<!-- 2&#45;&#45;3 -->
<g id="edge7" class="edge">
<title>2&#45;&#45;3</title>
<path fill="none" stroke="black" d="M30.39,-114.58C26.85,-128.03 5.9,-207.9 2.32,-221.53"/>
</g>
<!-- 2&#45;&#45;4 -->
<g id="edge8" class="edge">
<title>2&#45;&#45;4</title>
<path fill="none" stroke="black" d="M30.39,-110.73C26.85,-97.27 5.9,-17.4 2.32,-3.78"/>
</g>
<!-- 11 -->
<g id="node12" class="node">
<title>11</title>
<ellipse fill="black" stroke="black" cx="48.35" cy="-142.88" rx="1.8" ry="1.8"/>
<text text-anchor="middle" x="37.05" y="-148.48" font-family="Times,serif" font-size="14.00">11</text>
</g>
<!-- 2&#45;&#45;11 -->
<g id="edge27" class="edge">
<title>2&#45;&#45;11</title>
<path fill="none" stroke="red" d="M31.83,-114.28C34.83,-119.48 44.19,-135.68 47.32,-141.1"/>
</g>
<!-- 3&#45;&#45;4 -->
<g id="edge9" class="edge">
<title>3&#45;&#45;4</title>
<path fill="none" stroke="black" d="M1.8,-221.59C1.8,-201.27 1.8,-25.88 1.8,-4.03"/>
</g>
<!-- 3&#45;&#45;11 -->
<g id="edge29" class="edge">
<title>3&#45;&#45;11</title>
<path fill="none" stroke="red" d="M2.77,-221.82C8.83,-211.33 41.34,-155.02 47.38,-144.56"/>
</g>
<!-- 4&#45;&#45;5 -->
<g id="edge10" class="edge">
<title>4&#45;&#45;5</title>
<path fill="none" stroke="black" d="M3.21,-3.2C13.1,-12.98 71.79,-71.07 81.8,-80.98"/>
</g>
<!-- 6 -->
<g id="node7" class="node">
<title>6</title>
<ellipse fill="black" stroke="black" cx="54.16" cy="-112.65" rx="1.8" ry="1.8"/>
<text text-anchor="middle" x="47.36" y="-118.25" font-family="Times,serif" font-size="14.00">6</text>
</g>
<!-- 6&#45;&#45;1 -->
<g id="edge22" class="edge">
<title>6&#45;&#45;1</title>
<path fill="none" stroke="red" d="M53.78,-110.67C52.73,-105.2 49.8,-89.97 48.74,-84.45"/>
</g>
<!-- 6&#45;&#45;2 -->
<g id="edge24" class="edge">
<title>6&#45;&#45;2</title>
<path fill="none" stroke="red" d="M52.34,-112.65C48.05,-112.65 37.37,-112.65 32.91,-112.65"/>
</g>
<!-- 6&#45;&#45;9 -->
<g id="edge11" class="edge">
<title>6&#45;&#45;9</title>
<path fill="none" stroke="black" d="M55.77,-111.72C59.02,-109.85 66.31,-105.64 69.75,-103.65"/>
</g>
<!-- 10 -->
<g id="node11" class="node">
<title>10</title>
<ellipse fill="black" stroke="black" cx="71.62" cy="-122.73" rx="1.8" ry="1.8"/>
<text text-anchor="middle" x="79.32" y="-128.33" font-family="Times,serif" font-size="14.00">10</text>
</g>
<!-- 6&#45;&#45;10 -->
<g id="edge12" class="edge">
<title>6&#45;&#45;10</title>
<path fill="none" stroke="black" d="M55.77,-113.58C59.02,-115.45 66.31,-119.66 69.75,-121.65"/>
</g>
<!-- 6&#45;&#45;11 -->
<g id="edge13" class="edge">
<title>6&#45;&#45;11</title>
<path fill="none" stroke="black" d="M53.78,-114.63C52.73,-120.1 49.8,-135.33 48.74,-140.85"/>
</g>
<!-- 7&#45;&#45;3 -->
<g id="edge26" class="edge">
<title>7&#45;&#45;3</title>
<path fill="none" stroke="red" d="M81.84,-144.28C71.95,-154.07 13.27,-212.15 3.25,-222.06"/>
</g>
<!-- 7&#45;&#45;8 -->
<g id="edge14" class="edge">
<title>7&#45;&#45;8</title>
<path fill="none" stroke="black" d="M84.19,-141.26C87.2,-136.06 96.55,-119.85 99.68,-114.43"/>
</g>
<!-- 7&#45;&#45;10 -->
<g id="edge15" class="edge">
<title>7&#45;&#45;10</title>
<path fill="none" stroke="black" d="M82.34,-141.3C80.2,-137.59 74.86,-128.34 72.63,-124.47"/>
</g>
<!-- 7&#45;&#45;11 -->
<g id="edge16" class="edge">
<title>7&#45;&#45;11</title>
<path fill="none" stroke="black" d="M81.38,-142.88C75.37,-142.88 56.66,-142.88 50.41,-142.88"/>
</g>
<!-- 8&#45;&#45;5 -->
<g id="edge28" class="edge">
<title>8&#45;&#45;5</title>
<path fill="none" stroke="red" d="M99.77,-111.03C96.77,-105.83 87.41,-89.62 84.28,-84.2"/>
</g>
<!-- 8&#45;&#45;9 -->
<g id="edge17" class="edge">
<title>8&#45;&#45;9</title>
<path fill="none" stroke="black" d="M98.8,-111.99C93.54,-110.17 78.88,-105.09 73.57,-103.25"/>
</g>
<!-- 8&#45;&#45;10 -->
<g id="edge18" class="edge">
<title>8&#45;&#45;10</title>
<path fill="none" stroke="black" d="M98.8,-113.31C93.54,-115.13 78.88,-120.21 73.57,-122.05"/>
</g>
<!-- 9&#45;&#45;5 -->
<g id="edge30" class="edge">
<title>9&#45;&#45;5</title>
<path fill="none" stroke="red" d="M72.53,-100.99C74.67,-97.28 80.01,-88.03 82.25,-84.16"/>
</g>
<!-- 9&#45;&#45;10 -->
<g id="edge19" class="edge">
<title>9&#45;&#45;10</title>
<path fill="none" stroke="black" d="M71.62,-104.43C71.62,-108.18 71.62,-116.6 71.62,-120.57"/>
</g>
<!-- 10&#45;&#45;11 -->
<g id="edge20" class="edge">
<title>10&#45;&#45;11</title>
<path fill="none" stroke="black" d="M70.09,-124.05C65.88,-127.69 54.16,-137.85 49.91,-141.53"/>
</g>
</g>
</svg>
