<?xml version="1.0" encoding="UTF-8" standalone="no"?>
<!DOCTYPE svg PUBLIC "-//W3C//DTD SVG 1.1//EN"
 "http://www.w3.org/Graphics/SVG/1.1/DTD/svg11.dtd">
<!-- Generated by graphviz version 2.47.1 (0)
 -->
<!-- Title: G Pages: 1 -->
<svg width="262pt" height="277pt"
 viewBox="0.00 0.00 261.60 276.90" xmlns="http://www.w3.org/2000/svg" xmlns:xlink="http://www.w3.org/1999/xlink">
<g id="graph0" class="graph" transform="scale(1 1) rotate(0) translate(14 272.9)">
<title>G</title>
<polygon fill="white" stroke="transparent" points="-14,4 -14,-272.9 247.6,-272.9 247.6,4 -14,4"/>
<!-- 0 -->
<g id="node1" class="node">
<title>0</title>
<ellipse fill="black" stroke="black" cx="241.8" cy="-113.54" rx="1.8" ry="1.8"/>
<text text-anchor="middle" x="235" y="-119.14" font-family="Times,serif" font-size="14.00">0</text>
</g>
<!-- 1 -->
<g id="node2" class="node">
<title>1</title>
<ellipse fill="black" stroke="black" cx="63.28" cy="-128.94" rx="1.8" ry="1.8"/>
<text text-anchor="middle" x="56.48" y="-134.54" font-family="Times,serif" font-size="14.00">1</text>
</g>
<!-- 0&#45;&#45;1 -->
<g id="edge10" class="edge">
<title>0&#45;&#45;1</title>
<path fill="none" stroke="black" d="M241.8,-113.54C49.8,-2.69 14.1,-5.77 63.28,-128.94"/>
</g>
<!-- 2 -->
<g id="node3" class="node">
<title>2</title>
<ellipse fill="black" stroke="black" cx="105.95" cy="-100.1" rx="1.8" ry="1.8"/>
<text text-anchor="middle" x="99.15" y="-105.7" font-family="Times,serif" font-size="14.00">2</text>
</g>
<!-- 0&#45;&#45;2 -->
<g id="edge4" class="edge">
<title>0&#45;&#45;2</title>
<path fill="none" stroke="black" d="M239.88,-113.35C224.66,-111.84 123.68,-101.85 108,-100.3"/>
</g>
<!-- 3 -->
<g id="node4" class="node">
<title>3</title>
<ellipse fill="black" stroke="black" cx="1.8" cy="-252.1" rx="1.8" ry="1.8"/>
<text text-anchor="middle" x="-5" y="-257.7" font-family="Times,serif" font-size="14.00">3</text>
</g>
<!-- 0&#45;&#45;3 -->
<g id="edge1" class="edge">
<title>0&#45;&#45;3</title>
<path fill="none" stroke="black" d="M240.01,-114.58C219.24,-126.56 24.87,-238.78 3.67,-251.02"/>
</g>
<!-- 4 -->
<g id="node5" class="node">
<title>4</title>
<ellipse fill="black" stroke="black" cx="101.89" cy="-146.41" rx="1.8" ry="1.8"/>
<text text-anchor="middle" x="95.09" y="-152.01" font-family="Times,serif" font-size="14.00">4</text>
</g>
<!-- 0&#45;&#45;4 -->
<g id="edge12" class="edge">
<title>0&#45;&#45;4</title>
<path fill="none" stroke="black" d="M241.8,-113.54C145.14,-129.55 117.16,-136.12 101.89,-146.41"/>
</g>
<!-- 5 -->
<g id="node6" class="node">
<title>5</title>
<ellipse fill="black" stroke="black" cx="114.29" cy="-164.81" rx="1.8" ry="1.8"/>
<text text-anchor="middle" x="107.49" y="-170.41" font-family="Times,serif" font-size="14.00">5</text>
</g>
<!-- 0&#45;&#45;5 -->
<g id="edge6" class="edge">
<title>0&#45;&#45;5</title>
<path fill="none" stroke="black" d="M240,-114.26C225.71,-120.01 130.93,-158.12 116.21,-164.04"/>
</g>
<!-- 1&#45;&#45;2 -->
<g id="edge9" class="edge">
<title>1&#45;&#45;2</title>
<path fill="none" stroke="black" d="M65.11,-127.7C72.13,-122.95 97.25,-105.98 104.17,-101.3"/>
</g>
<!-- 1&#45;&#45;3 -->
<g id="edge3" class="edge">
<title>1&#45;&#45;3</title>
<path fill="none" stroke="black" d="M62.41,-130.68C55.52,-144.48 9.82,-236.03 2.73,-250.25"/>
</g>
<!-- 1&#45;&#45;4 -->
<g id="edge7" class="edge">
<title>1&#45;&#45;4</title>
<path fill="none" stroke="black" d="M64.94,-129.69C71.17,-132.51 93.19,-142.48 99.92,-145.52"/>
</g>
<!-- 1&#45;&#45;5 -->
<g id="edge15" class="edge">
<title>1&#45;&#45;5</title>
<path fill="none" stroke="black" d="M63.28,-128.94C96.62,-162.65 106.82,-169.83 114.29,-164.81"/>
</g>
<!-- 2&#45;&#45;3 -->
<g id="edge11" class="edge">
<title>2&#45;&#45;3</title>
<path fill="none" stroke="black" d="M105.95,-100.1C22.63,0 1.8,-30.4 1.8,-252.1"/>
</g>
<!-- 2&#45;&#45;4 -->
<g id="edge2" class="edge">
<title>2&#45;&#45;4</title>
<path fill="none" stroke="black" d="M105.78,-102.09C105.11,-109.71 102.72,-136.97 102.06,-144.48"/>
</g>
<!-- 3&#45;&#45;4 -->
<g id="edge14" class="edge">
<title>3&#45;&#45;4</title>
<path fill="none" stroke="black" d="M1.8,-252.1C84.32,-187.29 104.34,-166.15 101.89,-146.41"/>
</g>
<!-- 3&#45;&#45;5 -->
<g id="edge8" class="edge">
<title>3&#45;&#45;5</title>
<path fill="none" stroke="black" d="M3.39,-250.87C15.99,-241.09 99.6,-176.2 112.59,-166.13"/>
</g>
<!-- 4&#45;&#45;5 -->
<g id="edge5" class="edge">
<title>4&#45;&#45;5</title>
<path fill="none" stroke="black" d="M103.03,-148.11C105.43,-151.67 110.95,-159.86 113.25,-163.27"/>
</g>
<!-- 5&#45;&#45;2 -->
<g id="edge13" class="edge">
<title>5&#45;&#45;2</title>
<path fill="none" stroke="black" d="M114.29,-164.81C119.64,-139.8 117.97,-126.86 105.95,-100.1"/>
</g>
</g>
</svg>
