<?xml version="1.0" encoding="UTF-8" standalone="no"?>
<!DOCTYPE svg PUBLIC "-//W3C//DTD SVG 1.1//EN"
 "http://www.w3.org/Graphics/SVG/1.1/DTD/svg11.dtd">
<!-- Generated by graphviz version 2.40.1 (20161225.0304)
 -->
<!-- Title: G Pages: 1 -->
<svg width="262pt" height="307pt"
 viewBox="0.00 0.00 261.60 307.19" xmlns="http://www.w3.org/2000/svg" xmlns:xlink="http://www.w3.org/1999/xlink">
<g id="graph0" class="graph" transform="scale(1 1) rotate(0) translate(11 303.192)">
<title>G</title>
<polygon fill="#ffffff" stroke="transparent" points="-11,4 -11,-303.192 250.6,-303.192 250.6,4 -11,4"/>
<!-- 0 -->
<g id="node1" class="node">
<title>0</title>
<ellipse fill="#000000" stroke="#000000" cx="1.8" cy="-1.8" rx="1.8" ry="1.8"/>
<text text-anchor="middle" x="-3.5" y="-7.4" font-family="Times,serif" font-size="14.00" fill="#000000">0</text>
</g>
<!-- 1 -->
<g id="node2" class="node">
<title>1</title>
<ellipse fill="#000000" stroke="#000000" cx="144.9486" cy="-147.0111" rx="1.8" ry="1.8"/>
<text text-anchor="middle" x="139.6486" y="-152.6111" font-family="Times,serif" font-size="14.00" fill="#000000">1</text>
</g>
<!-- 0&#45;&#45;1 -->
<g id="edge1" class="edge">
<title>0&#45;&#45;1</title>
<path fill="none" stroke="#000000" d="M144.9486,-147.0111C129.4344,-114.8926 100.8054,-85.8496 1.8,-1.8"/>
</g>
<!-- 2 -->
<g id="node3" class="node">
<title>2</title>
<ellipse fill="#000000" stroke="#000000" cx="110.6748" cy="-117.4486" rx="1.8" ry="1.8"/>
<text text-anchor="middle" x="105.3748" y="-123.0486" font-family="Times,serif" font-size="14.00" fill="#000000">2</text>
</g>
<!-- 0&#45;&#45;2 -->
<g id="edge2" class="edge">
<title>0&#45;&#45;2</title>
<path fill="none" stroke="#000000" d="M3.3391,-3.4348C15.6418,-16.503 97.8414,-103.8168 109.3399,-116.0307"/>
</g>
<!-- 3 -->
<g id="node4" class="node">
<title>3</title>
<ellipse fill="#000000" stroke="#000000" cx="244.8" cy="-142.096" rx="1.8" ry="1.8"/>
<text text-anchor="middle" x="239.5" y="-147.696" font-family="Times,serif" font-size="14.00" fill="#000000">3</text>
</g>
<!-- 0&#45;&#45;3 -->
<g id="edge3" class="edge">
<title>0&#45;&#45;3</title>
<path fill="none" stroke="#000000" d="M3.6163,-2.8486C24.637,-14.9849 221.441,-128.6097 242.9036,-141.0011"/>
</g>
<!-- 4 -->
<g id="node5" class="node">
<title>4</title>
<ellipse fill="#000000" stroke="#000000" cx="88.6007" cy="-182.2468" rx="1.8" ry="1.8"/>
<text text-anchor="middle" x="83.3007" y="-187.8468" font-family="Times,serif" font-size="14.00" fill="#000000">4</text>
</g>
<!-- 0&#45;&#45;4 -->
<g id="edge4" class="edge">
<title>0&#45;&#45;4</title>
<path fill="none" stroke="#000000" d="M1.8,-1.8C24.7356,-119.0272 42.0948,-155.1174 88.6007,-182.2468"/>
</g>
<!-- 5 -->
<g id="node6" class="node">
<title>5</title>
<ellipse fill="#000000" stroke="#000000" cx="1.8" cy="-282.392" rx="1.8" ry="1.8"/>
<text text-anchor="middle" x="-3.5" y="-287.992" font-family="Times,serif" font-size="14.00" fill="#000000">5</text>
</g>
<!-- 0&#45;&#45;5 -->
<g id="edge5" class="edge">
<title>0&#45;&#45;5</title>
<path fill="none" stroke="#000000" d="M1.8,-3.8972C1.8,-28.2702 1.8,-257.3009 1.8,-280.499"/>
</g>
<!-- 1&#45;&#45;2 -->
<g id="edge6" class="edge">
<title>1&#45;&#45;2</title>
<path fill="none" stroke="#000000" d="M143.4759,-145.7408C137.8382,-140.8781 117.6659,-123.4787 112.1039,-118.6812"/>
</g>
<!-- 1&#45;&#45;3 -->
<g id="edge7" class="edge">
<title>1&#45;&#45;3</title>
<path fill="none" stroke="#000000" d="M147.0341,-146.9084C160.0289,-146.2688 229.7647,-142.8361 242.7259,-142.1981"/>
</g>
<!-- 1&#45;&#45;4 -->
<g id="edge8" class="edge">
<title>1&#45;&#45;4</title>
<path fill="none" stroke="#000000" d="M143.0738,-148.1834C134.5187,-153.5331 99.229,-175.6006 90.5403,-181.0339"/>
</g>
<!-- 1&#45;&#45;5 -->
<g id="edge9" class="edge">
<title>1&#45;&#45;5</title>
<path fill="none" stroke="#000000" d="M1.8,-282.392C124.4484,-205.6 153.0792,-178.5226 144.9486,-147.0111"/>
</g>
<!-- 2&#45;&#45;3 -->
<g id="edge10" class="edge">
<title>2&#45;&#45;3</title>
<path fill="none" stroke="#000000" d="M244.8,-142.096C149.4054,-113.9098 122.58,-108.9796 110.6748,-117.4486"/>
</g>
<!-- 2&#45;&#45;4 -->
<g id="edge11" class="edge">
<title>2&#45;&#45;4</title>
<path fill="none" stroke="#000000" d="M110.038,-119.318C106.8145,-128.7803 92.3285,-171.3038 89.1983,-180.4926"/>
</g>
<!-- 2&#45;&#45;5 -->
<g id="edge12" class="edge">
<title>2&#45;&#45;5</title>
<path fill="none" stroke="#000000" d="M110.6748,-117.4486C46.5102,-142.1574 24.7356,-175.1458 1.8,-282.392"/>
</g>
<!-- 3&#45;&#45;4 -->
<g id="edge13" class="edge">
<title>3&#45;&#45;4</title>
<path fill="none" stroke="#000000" d="M244.8,-142.096C173.0484,-177.5398 141.8094,-185.5714 88.6007,-182.2468"/>
</g>
<!-- 3&#45;&#45;5 -->
<g id="edge14" class="edge">
<title>3&#45;&#45;5</title>
<path fill="none" stroke="#000000" d="M242.9837,-143.1446C221.963,-155.2809 25.159,-268.9057 3.6964,-281.2971"/>
</g>
<!-- 4&#45;&#45;5 -->
<g id="edge15" class="edge">
<title>4&#45;&#45;5</title>
<path fill="none" stroke="#000000" d="M87.3736,-183.6625C77.6477,-194.8837 13.1289,-269.3214 3.1072,-280.8838"/>
</g>
</g>
</svg>
